<svg xmlns="http://www.w3.org/2000/svg" width="512" height="256" style="overflow: visible;" viewBox="0 0 256 512" data-bbox="188.01084525467613 123.263423501407 131.34356816632615 132.736576498593"><path transform="matrix(3.7289056603773596, 0, 0, 3.9044746811140416, 72.69046917115202, 0.5084628059804284)" data-type="rect" data-x="0" data-y="0" data-width="100" data-height="100" d="M0 0H100 V100 H0 Z" data-uid="o_f06015m3b_19" fill="rgba(48, 50, 54, 1)"></path><path text="O" fill="#33968e" space="preserve" text-anchor="middle" offset="0.5" font-scale="contain" font-size="48" font-family="Frijole" transform="matrix(1.115761637687683, 0.856340765953064, -0.856340765953064, 1.115761637687683, 224.90206909179688, 172.5190887451172)" path="M35.86938410276446 157.11022184654638C26.274835550805335 -214.46047662023386 -28.426915274365 146.64344160804552 -19.081212149365 146.64344160804552" font-weight="400" font-style="normal" data-uid="o_f06015m3b_4" data-fl-textpath="" d="M-10.233215728390686-2.75038917182117L-10.233215728390686-2.75038917182117Q-10.183062132394824-2.8917561298017525 -10.056906570142182-3.0379914679137143Q-9.927407434823149-3.1936512698910504 -9.880597411893678-3.3255937640062596L-9.880597411893678-3.3255937640062596Q-9.73985504670787-3.5727608869047254 -9.66964001231366-3.77067462807754Q-9.599424977919453-3.968588369250356 -9.340114410884002-4.131247613757862L-9.340114410884002-4.131247613757862Q-9.31459667448145-4.4723470789126605 -9.093902514638675-4.765424010470386Q-8.86378389093053-5.055157368961721 -8.85498401985994-5.349134514789661L-8.85498401985994-5.349134514789661Q-8.33241305738884-5.71549443233255 -8.055796707148609-6.285830644386259Q-7.77918035690838-6.85616685643997 -7.412875451748422-7.320408944639384L-7.412875451748422-7.320408944639384Q-7.247809523366688-7.516503919810797 -7.083349850318763-7.680981930319706Q-6.928314641136204-7.848803513895001 -6.763248712754477-8.044898489066417L-6.763248712754477-8.044898489066417Q-6.507594015182803-8.346793629155716 -6.30088040293939-8.570555740589443Q-6.094166790695981-8.794317852023173 -5.868604250721825-9.011392817324122L-5.868604250721825-9.011392817324122Q-5.400449009044175-9.344004707805716 -5.334790058383955-9.469260055788142Q-5.269131107723743-9.594515403770572 -5.128076446140548-9.693022167221873L-5.128076446140548-9.693022167221873Q-4.78425800071413-9.974249613579024 -4.372943501165125-10.146645618349291Q-3.9582854285497286-10.32846608698493 -3.6859128656461007-10.677483546401088L-3.6859128656461007-10.677483546401088Q-3.443320163942606-10.793020471581732 -3.210151926104481-10.911900969828768Q-2.970902797467369-11.01801343114404 -2.758714549758778-11.197390540983498L-2.758714549758778-11.197390540983498Q-1.6688569893639529-11.457986968530461 -0.7516893926758024-11.949620571516755Q 0.17490266787771214-12.437910601436661  1.255335764407166-12.70185060205001L 1.255335764407166-12.70185060205001Q 2.3792536482606836-12.75937094935636  3.352674069204654-13.05066578983464Q 4.329438063215007-13.35138509417829  5.464911473332681-13.351752402958608L 5.464911473332681-13.351752402958608Q 5.963783465402628-13.471863749334224  6.472392217735338-13.43997116319628Q 6.981000970068048-13.408078577058337  7.589016700122272-13.447025618109379L 7.589016700122272-13.447025618109379Q 7.845295990488717-13.451600039304349  8.174839929379358-13.483235341427832Q 8.513808332135362-13.511527070484926  8.832109041159226-13.451655051687279L 8.832109041159226-13.451655051687279Q 9.011173854601301-13.388127163425851  9.114236701786593-13.319730895033045Q 9.220643122038275-13.26075909050561  9.352585616153485-13.213949067576138L 9.352585616153485-13.213949067576138Q 9.50124597560065-13.214261363973527  9.637744553449856-13.24010973423444Q 9.764818667433687-13.269301677561746  9.91347902688085-13.269613973959135L 9.91347902688085-13.269613973959135Q 10.105918132588483-13.243783941159197  10.284982946030553-13.180256052897771Q 10.464047759472628-13.116728164636344  10.714246159040094-13.134070622763076L 10.714246159040094-13.134070622763076Q 11.366040635354786-13.146875334616793  11.538418302664072-13.064498518624625Q 11.698027933041597-12.976040811833471  11.940932931142486-12.94291737756695L 11.940932931142486-12.94291737756695Q 13.090405226320502-12.683661822914427  14.30616106495351-12.252340897350006Q 15.521916903586519-11.821019971785583  16.68810706409649-11.608886736459919L 16.68810706409649-11.608886736459919Q 16.905182029397437-11.383324196485766  17.31772737707502-11.29001644702421Q 17.736353615551586-11.18394066063089  18.1744350370927-11.102794692767297Q 18.62194092249918-11.018305151837314  19.04664805177473-10.899461328512231Q 19.47743607184926-10.767849468255388  19.77933121193856-10.512194770683713L 19.77933121193856-10.512194770683713Q 19.97542618710997-10.347128842301984  20.05265900149533-10.086293468201543Q 20.13323538894707-9.834882557966473  20.31261249878653-9.622694310257884L 20.31261249878653-9.622694310257884Q 20.482565144760617-9.413849635615684  20.685347266064817-9.267632634964695Q 20.87870492350364-9.1247592073801  21.074799898675053-8.959693278998373L 21.074799898675053-8.959693278998373Q 21.666097763397318-8.951518000722553  22.324579385844793-8.983171640307015Q 22.98640458135866-9.024249743756847  23.56890257501033-8.722097319653091L 23.56890257501033-8.722097319653091Q 24.144107167195422-8.369479003156084  24.323171980637493-8.305951114894656Q 24.492812330214193-8.24576679969962  24.67187714365626-8.182238911438194L 24.67187714365626-8.182238911438194Q 25.425834252886034-7.9147530661269245  26.128112959054953-7.591326692957224Q 26.839816129089247-7.264556746721129  27.466405165398776-6.787601633972881L 27.466405165398776-6.787601633972881Q 28.88799273946596-6.039210847513175  29.942356856641993-4.943621367638709Q 30.99672097381803-3.8480318877642414  32.142280115517806-2.889859537470169L 32.142280115517806-2.889859537470169Q 32.55576235238755-2.350570709667121  32.85493851220524-1.7881708293357477Q 33.148033781223944-1.2385389859361347  33.67642835047956-0.7539781753239154L 33.67642835047956-0.7539781753239154Q 34.06439285094676 0.12641011763393095  34.473025045146116 0.9186346627370412Q 34.89108170321083 1.7142027809065397  35.33011835140508 2.5702675106684634L 35.33011835140508 2.5702675106684634Q 35.453573270847095 3.0597150388730405  35.54146139722639 3.589597740271694Q 35.629349523605704 4.119480441670348  35.72271228545018 4.693748144663273L 35.72271228545018 4.693748144663273Q 35.775033618766784 5.264066019256002  35.82127406128441 5.821615856916976Q 35.86417093073565 6.388590158443319  35.9669581564455 6.966201434502632L 35.9669581564455 6.966201434502632Q 36.19683783360017 7.8435584507914795  36.15278346586427 8.32663112926066Q 36.108729098128364 8.809703807729843  36.06680579279124 9.346585951658668L 36.06680579279124 9.346585951658668Q 36.074723787052605 9.593440778159744  36.11760231904286 9.83147739612925Q 36.15105638716775 10.066170441032364  36.16505527222809 10.325793304465204L 36.16505527222809 10.325793304465204Q 36.17297326648945 10.572648130966284  36.12678783635476 11.001911343975824Q 36.06783436928829 11.437255447784343  35.8589896946461 11.60720809375843L 35.8589896946461 11.60720809375843Q 35.96541445235876 11.995117581842702  35.82529667996773 12.539605423635498Q 35.6851789075767 13.084093265428292  35.41706846947066 13.540729655763737L 35.41706846947066 13.540729655763737Q 35.15869479162736 14.149369978612734  35.00490876803437 14.911832999976692Q 34.860547208306734 15.67763959440704  34.49424230314678 16.141881682606453L 34.49424230314678 16.141881682606453Q 34.10392613118828 16.70371198252598  33.60749749791451 17.026293153808396Q 33.120493328506114 17.35221789815721  33.00166784264201 18.105862710989594L 33.00166784264201 18.105862710989594Q 32.92539025490979 18.619946098787484  32.98924877702958 18.918479328349413Q 33.053107299149374 19.217012557911342  32.679508992522834 19.731720538504007L 32.679508992522834 19.731720538504007Q 32.5855766502665 19.846945167287267  32.513230553473505 19.991049443000435Q 32.42811641974875 20.141234609512594  32.29648622203092 20.243084946030283L 32.29648622203092 20.243084946030283Q 32.13476386671558 20.429755457336324  31.941424546737732 20.615819713308568Q 31.75142879982628 20.792459505415437  31.624373023303423 21.15058913229958L 31.624373023303423 21.15058913229958Q 31.088427768566767 21.554646905303954  30.502622876770655 21.919794312179246Q 29.926242448839925 22.28828529212093  29.359892740108354 22.628502880466492L 29.359892740108354 22.628502880466492Q 29.100582173072905 22.791162124973997  28.898424644563487 22.942265843217342Q 28.696267116054067 23.093369561460683  28.40260226662351 23.23323004983725L 28.40260226662351 23.23323004983725Q 28.096169380261202 23.379171429012807  27.896436873086984 23.403807288606117L 27.896436873086984 23.403807288606117Q 27.62343971738858 23.455504029127944  27.36168579155695 23.41569344872864Q 27.109356329590693 23.37922644139573  26.853077039224246 23.3838008625907L 26.853077039224246 23.3838008625907Q 26.47854184340554 23.452527764841875  26.178189847842205 23.61123718094919Q 25.86506981534711 23.77602748785548  25.537969235252653 24.010132614885773L 25.537969235252653 24.010132614885773Q 25.015398272781557 24.376492532428664  24.606527132028724 24.751358362105734Q 24.197655991275898 25.12622419178281  23.63556840734191 25.574060711047657L 23.63556840734191 25.574060711047657Q 23.37199571550888 25.62910102463588  23.054613558216207 25.68627240062289Q 22.73388782785714 25.75286824047527  22.430798514561218 25.889385155785448L 22.430798514561218 25.889385155785448Q 21.869905103833858 25.94505006216845  21.28439417097416 26.12992014493407Q 20.686115201182698 26.320871118498662  20.0008849942041 26.427920469006104L 20.0008849942041 26.427920469006104Q 19.737312302371066 26.48296078259432  19.407768363480432 26.5145960847178Q 19.068799960724423 26.542887813774897  18.694264764905718 26.61161471602607L 18.694264764905718 26.61161471602607Q 18.136714927244746 26.657855158543697  17.696208484368427 26.70317704933013Q 17.25904561455851 26.739074476251194  16.718819897563293 26.706575634779455L 16.718819897563293 26.706575634779455Q 15.151345956703487 26.638565012627943  13.244885275626697 26.26990843597669L 13.244885275626697 26.26990843597669Q 12.950908129798762 26.261108564906092  12.77184331635669 26.197580676644662Q 12.602202966779991 26.13739636144963  12.298801357086681 26.125252917312643L 12.298801357086681 26.125252917312643Q 11.537550846390323 25.908232964394625  10.777218887425157 25.808256406261265Q 10.013543355393601 25.717704311993273  9.246211953898268 25.48791632214349L 9.246211953898268 25.48791632214349Q 8.880788925547542 25.411326438013894  8.534821080261363 25.309806735354563Q 8.194934125774164 25.221055069627003  7.782388778096579 25.127747320165447L 7.782388778096579 25.127747320165447Q 7.552251816927457 25.088542995099946  7.271648963365081 25.042045268567858Q 6.9816216459373335 24.992203968969392  6.764858977033774 24.9153017884424L 6.764858977033774 24.9153017884424Q 6.585794163591701 24.851773900180973  6.423447215481589 24.74112369259268Q 6.2705247312368435 24.63381705807079  6.04433759846791 24.55357130447741L 6.04433759846791 24.55357130447741Q 5.60138779679542 24.396423370357034  5.151144593656346 24.289741328629912Q 4.691476926651899 24.17971571383641  4.3029428457728525 23.988819752654734L 4.3029428457728525 23.988819752654734Q 3.6903526945236607 23.771487503339326  3.1577143379314387 23.50824544536466Q 2.6345004452045924 23.248346960456388  1.9611013859655895 22.90333434182335L 1.9611013859655895 22.90333434182335Q 1.5011214225637541 22.644648367582676  1.0390103967631301 22.33215292788236Q 0.576899370962507 22.01965748818204  0.15977960208994801 21.670070448354036L 0.15977960208994801 21.670070448354036Q-0.15154000186471706 21.411072177715976 -0.44127336035605325 21.180953554007825Q-0.7343502919137803 20.960259394165046 -1.1605822282543166 20.75598914071782L-1.1605822282543166 20.75598914071782Q-1.3141293052938403 20.351361787301595 -1.6254489092485125 20.092363516663532Q-1.9273440493378073 19.836708819091857 -2.2763615087539675 19.56433625618823L-2.2763615087539675 19.56433625618823Q-2.6043989780405865 19.352460304877027 -2.7925942964116244 19.105311519439542Q-2.974708723983673 18.87093077093381 -3.252280300877043 18.66634822108919L-3.252280300877043 18.66634822108919Q-3.912305067850485 18.28363774699467 -4.56533039229375 18.030738704616564Q-5.22778018060239 17.77449608917206 -5.692334565199193 17.25953082456494L-5.692334565199193 17.25953082456494Q-5.831882757178375 17.114526334581562 -5.923096119163098 16.923005780605106Q-6.00822859034884 16.74425326356043 -6.194899101654877 16.582530908245086L-6.194899101654877 16.582530908245086Q-6.343871757499427 16.43418284519531 -6.461227448681478 16.28644103747934Q-6.591351176795287 16.14478012056234 -6.730899368774468 15.999775630578956L-6.730899368774468 15.999775630578956Q-6.876528451552629 15.84200310366381 -6.978378788070321 15.71037290594599Q-7.076885551521624 15.569318244362794 -7.225858207366175 15.420970181313018L-7.225858207366175 15.420970181313018Q-7.374830863210725 15.272622118263245 -7.539308873719633 15.108162445215312Q-7.707130457294931 14.953127236032753 -7.856103113139482 14.804779172982979L-7.856103113139482 14.804779172982979Q-7.907487557263927 14.680442376731738 -7.973771100718918 14.50837700581984Q-8.030630180308538 14.33965520797433 -8.094782661364743 14.22139930252207L-8.094782661364743 14.22139930252207Q-8.278421896001785 13.901592123894195 -8.519214169164856 13.593340471530482Q-8.760006442327935 13.285088819166765 -8.984687105492853 12.961331812138697L-8.984687105492853 12.961331812138697Q-9.254083404110403 12.16545139757181 -9.718950085104598 11.50182577351752Q-10.174392302233418 10.841543722529625 -10.562044506303229 10.109815789018938L-10.562044506303229 10.109815789018938Q-10.626196987359435 9.99155988356668 -10.664207139218307 9.829525231853953Q-10.698873718010798 9.658066116275853 -10.763026199066996 9.539810210823596L-10.763026199066996 9.539810210823596Q-10.784318485593921 9.330653239784006 -10.839046502784758 9.215740907398137Q-10.903198983840955 9.09748500194588 -10.9545834279654 8.973148205694642L-10.9545834279654 8.973148205694642Q-11.009623741553622 8.70957551386161 -11.042471554344703 8.443265504295987Q-11.078662940202175 8.186379958595737 -11.248615586176266 7.977535283953536L-11.248615586176266 7.977535283953536Q-11.347746942422347 7.539159903476011 -11.379382244545832 7.209615964585374Q-11.407673973602918 6.870647561829369 -11.500724439050021 6.445040218283606L-11.500724439050021 6.445040218283606Q-11.522016725576941 6.23588324724402 -11.639978672092791 6.11975840419055Q-11.748516154743267 6.006977134203472 -11.68498826648184 5.827912320761399L-11.68498826648184 5.827912320761399Q-11.645783941416337 5.597775359592277 -11.396816389977445 5.314729147233726Q-11.147848838538554 5.031682934875171 -11.169453421462867 4.6738656043884195L-11.169453421462867 4.6738656043884195Q-11.200170171855163 4.4613650602824375 -11.346405509967125 4.335209498029797Q-11.502065311944458 4.205710362710765 -11.603915648462152 4.074080164992944L-11.603915648462152 4.074080164992944Q-11.719764870040187 3.6828271038422824 -11.802472319890724 3.3776067281475695Q-11.894604233606628 3.0690427793864696 -11.784578618813114 2.609375112382022L-11.784578618813114 2.609375112382022Q-11.775466451345132 2.4640583260012483 -11.68427142682139 2.326641196420857Q-11.580308365365887 2.1831431760414857 -11.520124050170852 2.013502826464787L-11.520124050170852 2.013502826464787Q-11.473626323638765 1.7328999729024117 -11.480331807232522 1.4228112170763199Q-11.499805327758047 1.118803352049207 -11.439933308960399 0.8005026430253448L-11.439933308960399 0.8005026430253448Q-11.423527740025836 0.604719964251319 -11.331726460168293 0.4356858700084203Q-11.249349644176117 0.26330820269913113 -11.202539621246647 0.1313657085839237L-11.202539621246647 0.1313657085839237Q-10.985207371931239-0.48122444266526854 -10.589398227046583-0.6697320574336865Q-10.206357119093695-0.8521587814031268 -10.10059362909777-1.4194453793268595L-10.10059362909777-1.4194453793268595Q-10.148028244822012-1.584823604105977 -10.209443408145628-1.6808870087611012Q-10.270858571469239-1.776950413416223 -10.318293187193492-1.9423286381953397L-10.318293187193492-1.9423286381953397Q-10.373021204384322-2.057240970581212 -10.33321062398502-2.318994896412839Q-10.293400043585722-2.580748822244471 -10.233215728390686-2.75038917182117ZM 26.791496838751844 20.32729830592405L 26.791496838751844 20.32729830592405Q 26.506631860391884 20.173181648472678  26.223916281891693 20.40181214003779Q 25.9445442764579 20.621018167737528  25.732668325146697 20.949055637024156L 25.732668325146697 20.949055637024156Q 25.740586319408056 21.19591046352523  25.923913257647705 21.367057282705943Q 26.12000823281912 21.532123211087672  26.00967032162822 21.843130518644955L 26.00967032162822 21.843130518644955Q 26.40518550757647 21.834900227986207  26.784276787129162 21.693514932544645Q 27.153943602816497 21.548786064036697  27.25636351974603 20.990923929978337L 27.25636351974603 20.990923929978337Q 27.03960085084247 20.914021749451344  27.015571246582958 20.682672277614625Q 27.000966106188816 20.45466637884429  26.791496838751844 20.32729830592405ZM 20.19923995356192 23.50607938672627L 20.19923995356192 23.50607938672627Q 20.05849758837612 23.753246509624738  20.206257733553073 23.964828501999527Q 20.357361451796415 24.16698603050895  20.412401765384633 24.430558722341978L 20.412401765384633 24.430558722341978Q 20.621558736424223 24.409266435815056  20.861726416792514 24.42019736928444Q 21.111318561026188 24.43447187582022  21.323819105132166 24.403755125427924L 21.323819105132166 24.403755125427924Q 21.881368942793138 24.3575146829103  22.36837311220153 24.03158993856149Q 22.8648017454753 23.709008767279066  23.340250388619534 23.325930984404224L 23.340250388619534 23.325930984404224Q 23.673431859512974 23.104593894305694  23.993845293474653 22.889337695006148Q 24.320339618235312 22.686849532638366  24.315452900642953 22.28190988282475L 24.315452900642953 22.28190988282475Q 24.21360256412526 22.150279685106923  24.02298222441903 22.02959875831947Q 23.841786348578164 21.912261404598397  23.787058331387335 21.797349072212533L 23.787058331387335 21.797349072212533Q 23.476363320227442 21.8356715204688  23.25748792638607 22.033897558039Q 23.038612532544697 22.232123595609206  22.823080711769716 22.42092516931404Q 22.604205317928344 22.61915120688424  22.385329924086967 22.817377244454445Q 22.157030066380223 23.012259708958254  21.893457374547197 23.067300022546476L 21.893457374547197 23.067300022546476Q 21.599792525116644 23.207160510923046  20.999070196529004 23.19564165958084Q 20.407772331806736 23.18746638130502  20.19923995356192 23.50607938672627ZM 25.0941208979923 7.735038186480412L 25.0941208979923 7.735038186480412Q 25.22575109571012 7.63318784996272  25.343088449431193 7.451991974121859Q 25.46042580315226 7.270796098280998  25.49020566435239 7.0373155640454845L 25.49020566435239 7.0373155640454845Q 25.35368874904221 6.734226250749561  25.00924571082102 6.718132978212385Q 24.66814624566622 6.692615241809835  24.591244065139232 6.9093779107133955L 24.591244065139232 6.9093779107133955Q 24.46387599221899 7.118847178150374  24.613160944460933 7.415855600647314Q 24.74967785977111 7.718944913943236  25.0941208979923 7.735038186480412ZM 26.52131258887307-0.05618276260586619L 26.52131258887307-0.05618276260586619Q 26.32856118676805-0.23067315485296724  26.085950147603572-0.44407391322915934Q 25.830571071507336-0.6513937808063694  25.60532082793057-0.28565845605825935L 25.60532082793057-0.28565845605825935Q 25.74518131630714 0.008006393372289367  25.84644373495201 0.5001912393094567Q 25.951049726663264 0.9829516213812495  25.81822535573882 1.4769735707807952L 25.81822535573882 1.4769735707807952Q 25.7085120373427 2.0853015972324043  25.39845995643856 2.7498824479398367Q 25.08840787553442 3.4144632986472674  25.134648318052047 3.972013136308239L 25.134648318052047 3.972013136308239Q 25.101524883785526 4.214918134409124  25.216161594695958 4.6694051248848005Q 25.318030268674626 5.129973006159458  25.442679361323254 5.227248921482184L 25.442679361323254 5.227248921482184Q 25.629349872629298 5.388971276797522  25.85066862526685 5.393215064134126Q 26.071987377904403 5.397458851470729  26.28114434894399 5.376166564943805L 26.28114434894399 5.376166564943805Q 26.37507669120032 5.260941936160549  26.586952642511527 4.932904466873925L 26.586952642511527 4.932904466873925Q 26.625844671179635 4.554107146257637  26.450711348676784 4.120600145911496Q 26.288346063105692 3.6810122547663724  26.18587113379322 3.2520613381542205L 26.18587113379322 3.2520613381542205Q 26.156348556607547 2.64738918116639  26.33265771485605 2.359786885073844Q 26.508966873104555 2.0721845889812984  26.619304784295455 1.7611772814240174L 26.619304784295455 1.7611772814240174Q 26.78982701068139 1.280529624290037  26.744505119894953 0.8400231814137253Q 26.699183229108517 0.39951673853741276  26.52131258887307-0.05618276260586619ZM 24.26396122955657-7.03245431986279L 24.26396122955657-7.03245431986279Q 23.80429356255213-7.142479934656302  23.432183388068623-7.200220891055159Q 23.050648749719745-7.261305420520406  22.756983900289192-7.121444932143837L 22.756983900289192-7.121444932143837Q 22.89412540839415-6.521034899953586  23.151635546889178-6.259905566916732Q 23.396377648452443-5.992695343080898  23.754507275336586-5.865639566558046L 23.754507275336586-5.865639566558046Q 24.461342065239492-5.61487158657873  25.107367947152596-5.491783975917043Q 25.759474719864677-5.355928328323595  26.180507642215467-5.705258084137143L 26.180507642215467-5.705258084137143Q 25.979838245849088-6.126603302885322  25.414058117529365-6.475878046315942Q 24.838853525344277-6.828496362812946  24.26396122955657-7.03245431986279ZM 2.8741741332480855 3.4913999158530737L 2.8741741332480855 3.4913999158530737Q 2.733431768062276 3.7385670387515395  2.6565295875352857 3.955329707655099Q 2.5762838339419054 4.181516840424029  2.499381653414915 4.3982795093275895L 2.499381653414915 4.3982795093275895Q 2.2410079755716295 5.006919832176589  2.0747478739832745 5.595186420229854Q 1.9212558093266867 6.17737211748414  1.9902950079752428 6.70056767275001L 1.9902950079752428 6.70056767275001Q 2.011587294502169 6.909724643789601  2.0374356647630827 7.046223221638804Q 2.0632840350239987 7.182721799488004  2.0335041738238666 7.4162023337235174L 2.0335041738238666 7.4162023337235174Q 1.8596383743715417 7.906274454722869  1.6353066825259668 8.389053174255642Q 1.407631417614002 8.881256357653783  1.2337656181616765 9.371328478653135L 1.2337656181616765 9.371328478653135Q 0.936187615252889 10.210105762671258  0.7562592624625535 11.01634753029568Q 0.5669064458068545 11.819245724853717  0.4176765059478398 12.509050353027286L 0.4176765059478398 12.509050353027286Q 0.576734893374498 13.615938075151458  0.8914164078565383 14.194449565480983Q 1.2027543492721806 14.78238551967588  1.794989103186614 15.236541876293193L 1.794989103186614 15.236541876293193Q 2.1102585355414787 15.45449871840338  2.450145490028672 15.54325038413094Q 2.7961133353148515 15.644770086790269  3.0980084754041535 15.900424784361944L 3.0980084754041535 15.900424784361944Q 3.2469811312487042 16.04877284741172  3.2849912831075843 16.21080749912445Q 3.3290823257654374 16.385610187768936  3.468630517744625 16.530614677752325L 3.468630517744625 16.530614677752325Q 3.9669329294027227 17.09999566315289  4.595010097855288 17.004501838909615Q 5.226430839374248 16.899583550800966  5.793405140900591 16.856686681349732L 5.793405140900591 16.856686681349732Q 6.53825008266238 17.269489313041774  7.346016657351792 17.534844095954256Q 8.14770234124223 17.787430841934974  8.868223719808089 18.149161325899964L 8.868223719808089 18.149161325899964Q 9.08498638871165 18.226063506426954  9.168300093895986 18.49966691745916Q 9.238845762148562 18.779351219290344  9.434940737319973 18.944417147672073L 9.434940737319973 18.944417147672073Q 9.706431423414369 19.136231660584933  10.011964095506466 19.20218457018156Q 10.311415876799586 19.255369442846426  10.520572847839176 19.2340771563195L 10.520572847839176 19.2340771563195Q 10.763165549542672 19.11854023113886  10.923069138856611 19.026720613820338Q 11.073548264305176 18.93155742343543  11.286048808411156 18.900840673043135L 11.286048808411156 18.900840673043135Q 11.478487914118793 18.926670705843073  11.663027363026043 19.034583595698766Q 11.844223238866903 19.151920949419836  12.023288052308978 19.215448837681265L 12.023288052308978 19.215448837681265Q 12.48295571931342 19.325474452474772  12.969978226182796 19.3284873916828Q 13.466425196917541 19.334843903957214  13.857990554465587 19.36765504182635L 13.857990554465587 19.36765504182635Q 14.236787875081877 19.406547070494458  14.425883407723123 19.44180156715977Q 14.611635367297973 19.486480527690453  14.875208059131005 19.43144021410223L 14.875208059131005 19.43144021410223Q 15.590842720104511 19.38823104825361  16.066603659646134 19.15381362482593L 16.066603659646134 19.15381362482593Q 16.10580798471164 18.923676663656806  16.305540491885854 18.899040804063493Q 16.518041035991835 18.868324053671195  16.696793553036514 18.783191582485458L 16.696793553036514 18.783191582485458Q 16.952760547005575 18.629956801843328  17.086815766058603 18.401638606675604Q 17.211446521246252 18.169976838441492  17.467413515215313 18.016742057799362L 17.467413515215313 18.016742057799362Q 17.619987028140716 17.317512965760418  17.96257462543855 16.770581765171443Q 18.305162222736385 16.22365056458247  18.603052522042564 15.53353364001151L 18.603052522042564 15.53353364001151Q 18.938640676810227 14.856791007706118  19.200651886656317 14.058448896882073Q 19.456582205703423 13.24733874912627  19.67391445501883 12.634748597877078L 19.67391445501883 12.634748597877078Q 19.737442343280257 12.45568378443501  19.756585229947415 12.282093606458117Q 19.762960079682806 12.114584319280208  19.82648796794423 11.935519505838139L 19.82648796794423 11.935519505838139Q 20.030758221391466 11.5092875694976  20.0559819988576 11.34846542845247Q 20.09063024018911 11.190986860473735  20.17087599378249 10.964799727704806L 20.17087599378249 10.964799727704806Q 20.281213904973388 10.653792420147521  20.407369467226033 10.50755708203556Q 20.536868602545063 10.351897280058228  20.71530882319236 10.118104449425324L 20.71530882319236 10.118104449425324Q 21.21658749913653 9.542587560842843  21.67713704295021 9.11178120330734L 21.67713704295021 9.11178120330734Q 22.20788328369712 8.154123421042183  22.85536062283131 7.046886727598671Q 23.49675707116651 5.926881997223396  23.46234777638848 4.9172701904219505L 23.46234777638848 4.9172701904219505Q 23.42828745292979 4.714194110181344  23.298769980149782 4.540916228601841Q 23.1598280435044 4.364294773955949  23.112393427780155 4.198916549176831L 23.112393427780155 4.198916549176831Q 23.057665410589323 4.084004216790962  23.109031517252788 3.8794033294853665Q 23.150973160050878 3.671458869113378  23.19352105818277 3.4318974440788823L 23.19352105818277 3.4318974440788823Q 23.24850635938806 2.7086570852414047  23.485587750704426 1.8908597913528178Q 23.728750032819768 1.085830534395992  23.54114263232156 0.47812710073915987L 23.54114263232156 0.47812710073915987Q 23.272058630101395-0.16909295438056304  22.78652425537506-0.7445548305801131L 22.78652425537506-0.7445548305801131Q 22.590429280203644-0.909620758961843  22.44145662435909-1.0579688220116186Q 22.305252005446302-1.212397775860378  22.109157030274886-1.3774637042421078L 22.109157030274886-1.3774637042421078Q 21.526346740225826-1.8282764877930289  20.718580165536412-2.0936312707055063Q 19.92023805471237-2.3556424805515954  19.196373103080113-2.7079485006512156L 19.196373103080113-2.7079485006512156Q 18.630592974760393-3.0572232440818325  18.325060302668295-3.123176153678461Q 18.025608521375176-3.1763610263433257  17.73131907914985-3.3338212568610857L 17.73131907914985-3.3338212568610857Q 17.6127508773002-3.418329135252046  17.28805698107997-3.6396295504286202L 17.28805698107997-3.6396295504286202Q 17.16948877923032-3.7241374288195814  17.02872807658354-3.8059079894779524Q 16.884623800870365-3.8782540862709505  16.76939917208711-3.9721864285272845L 16.76939917208711-3.9721864285272845Q 16.556586331583745-4.090130037582154  16.333136516547402-4.148183290378399Q 16.100262237645687-4.209580116241037  15.883499568742128-4.286482296768027L 15.883499568742128-4.286482296768027Q 15.555462099455504-4.49835824807923  15.385821749878804-4.5585425632742655L 15.385821749878804-4.5585425632742655Q 14.763807134764242-4.779218385656063  14.040566775926763-4.8342036868613505Q 13.311245526290303-4.901957024998405  12.698655375041117-5.119289274313811L 12.698655375041117-5.119289274313811Q 12.434770386810694-5.212909320172756  12.221957546307326-5.330852929227625Q 12.021912742735722-5.454877429081474  11.842847929293649-5.518405317342902L 11.842847929293649-5.518405317342902Q 10.79491367423594-5.794691033724767  10.196616366983502-5.932677743717004Q 9.594975486664675-6.061239989843871  9.169368143118911-5.9681895243967755L 9.169368143118911-5.9681895243967755Q 8.89637098742051-5.9164927838749435  8.388074531485186-5.799725010565722Q 7.8703536116845-5.686300810322892  7.674883229307863-5.554046019810293L 7.674883229307863-5.554046019810293Q 7.543253031590038-5.452195683292601  7.407066750138224-5.277686953584522Q 7.270880468686411-5.1031782238764425  7.129825807103221-5.004671460425139L 7.129825807103221-5.004671460425139Q 6.951073290058538-4.919538989239402  6.795725784478591-4.900377765111268Q 6.640378278898645-4.881216540983136  6.492030215848866-4.732243885138583L 6.492030215848866-4.732243885138583Q 6.266467675874711-4.515168919837636  6.085914730289604-4.006247871107539Q 5.905361784704496-3.4973268223774427  5.7311836888547845-3.1559150608252535L 5.7311836888547845-3.1559150608252535Q 5.526913435407556-2.7296831244847155  5.354260146622829-2.3028449328103795Q 5.1782632847717105-1.8665822772706702  5.02111535065134-1.42363247559818L 5.02111535065134-1.42363247559818Q 4.8940595741284865-1.0655028487140372  4.716537905212384-0.7146666232964758Q 4.535672663229891-0.35440593401354414  4.354201165913588 0.037471719931894576L 4.354201165913588 0.037471719931894576Q 4.136556620200796 0.5014015117339211  4.034136703271261 1.0592636457922797Q 3.937797677140697 1.6298938167823998  3.6867174007639956 2.1880682472381494L 3.6867174007639956 2.1880682472381494Q 3.5329130397100155 2.621593585045268  3.327724234531592 2.9307821266011462Q 3.116454538554194 3.227202631225266  2.8741741332480855 3.4913999158530737ZM-2.124577066211348 10.164067032224375L-2.124577066211348 10.164067032224375Q-2.5456099885621404 10.513396788037921 -2.81309583387341 11.267353897267695L-2.81309583387341 11.267353897267695Q-2.7200453684263093 11.692961240813457 -2.7364325998999015 12.217681603144317Q-2.7400517944417255 12.736321074676196 -2.647001328994625 13.161928418221958L-2.647001328994625 13.161928418221958Q-2.369429752101254 13.36651096806658 -2.128637478938182 13.674762620430291Q-1.8878452057751107 13.983014272794005 -1.5440267603486948 13.701786826436855L-1.5440267603486948 13.701786826436855Q-1.521852597012539 13.370111825147427 -1.639520584591975 13.073709657984288Q-1.7605321452378009 12.78673195468652 -1.6809109844391923 12.26322410302326L-1.6809109844391923 12.26322410302326Q-1.617383096177765 12.084159289581189 -1.5334814731206077 11.997208052394049Q-1.446236276997059 11.900832351341535 -1.42983070806249 11.70504967256751L-1.42983070806249 11.70504967256751Q-1.3362106622035461 11.441164684337092 -1.1678194982163972 10.906707561743469Q-1.0088527980946265 10.368906866083455 -1.1711997462047474 10.258256658495167L-1.1711997462047474 10.258256658495167Q-1.3578702575107864 10.096534303179828 -1.6281300954766038 10.17042354449879Q-1.9078143973077846 10.240969212751367 -2.124577066211348 10.164067032224375ZM-2.633349177010491-9.158105488982265L-2.633349177010491-9.158105488982265Q-3.340753547325254-8.7193811371854 -3.999823087645546-8.327172849381594Q-4.658892627965845-7.9349645615777895 -5.088100828592458-6.994336941041976L-5.088100828592458-6.994336941041976Q-4.816297846100673-6.653862068681952 -4.494047308676617-6.635031478412184Q-4.177877662051545-6.628968925074181 -3.8842128126209987-6.768829413450751Q-3.5777799262586845-6.914770792626301 -3.319994166288218-7.162856467255955Q-3.0494403693859975-7.417023032684594 -2.837252121677406-7.596400142524054L-2.837252121677406-7.596400142524054Q-2.4329370646585673-7.898607579010739 -1.9322463065872202-8.113569819373875Q-1.4282119754494826-8.337956523602383 -0.9557946089742462-8.562949483164688L-0.9557946089742462-8.562949483164688Q-0.6447873014169665-8.45261157197379 -0.347778878920022-8.601896524215732Q-0.044689565624104866-8.738413439525912  0.12493244649161772-9.007166807887712Q 0.2912108855409494-9.266495712384142  0.27173736501542933-9.57050357741125Q 0.25226384448990435-9.874511442438363  0.021814586923398327-10.06237612695103L 0.021814586923398327-10.06237612695103Q-0.08003574959429471-10.19400632466885 -0.2353832551742414-10.174845100540717Q-0.39073076075418856-10.155683876412585 -0.6074934296577519-10.232586056939576L-0.6074934296577519-10.232586056939576Q-0.897208450688106-10.133766997090882 -1.150750423321969-10.10700007509878Q-1.4170604328875864-10.074152262307694 -1.6292486805961777-9.894775152468235L-1.6292486805961777-9.894775152468235Q-1.868185512835896-9.640002331705798 -1.969723552956204-9.622972169976455Q-2.080686056941881-9.609285581313504 -2.195598389327745-9.55455756412267L-2.195598389327745-9.55455756412267Q-2.5017189792926664-9.259955825499954 -2.633349177010491-9.158105488982265ZM-6.624766331755077-5.205158601303324L-6.624766331755077-5.205158601303324Q-7.04579925410587-4.855828845489777 -6.887383796934966-4.375199525816772Q-6.738392803629439-3.8979137792101604 -6.309129590619897-3.8517283490754664L-6.309129590619897-3.8517283490754664Q-6.015152444791958-3.8429284780048705 -5.779559185618638-4.0882768349019365Q-5.547309499511701-4.324200727933629 -5.474669443782289-4.648582327756474Q-5.411453851918248-4.976307500645708 -5.5269907770988915-5.2189002023492055Q-5.63644681148056-5.448724867120942 -5.977546276635358-5.474242603523491L-5.977546276635358-5.474242603523491Q-6.0885087806210345-5.46055601486054 -6.2927973715292405-5.363261762076839Q-6.5004295355038435-5.256543045427766 -6.624766331755077-5.205158601303324ZM 31.722934799137654 22.278456844553283L 31.722934799137654 22.278456844553283Q 31.5192891384852 23.00200949978815  31.182764094525375 23.23277105375205Q 30.859007087497304 23.457451716916967  30.522482043537476 23.688213270880873L 30.522482043537476 23.688213270880873Q 30.242503782769873 23.939036263243114  30.019072305194513 24.209920694003703Q 29.79564082761915 24.480805124764295  29.570078287644996 24.697880090065247L 29.570078287644996 24.697880090065247Q 29.314111293675932 24.85111487070738  28.897322158661744 24.979125873883373Q 28.480533023647553 25.107136877059368  28.186868174217 25.246997365435938L 28.186868174217 25.246997365435938Q 27.88043528785469 25.39293874461149  27.66490346707971 25.58174031831632Q 27.44602807323834 25.779966355886526  27.14901965074139 25.929251308128464L 27.14901965074139 25.929251308128464Q 26.331277369235742 26.67898296748261  25.403454460553643 26.901569243170698L 25.403454460553643 26.901569243170698Q 24.169217002970203 27.59903458159116  22.899982332735917 27.647442761429534L 22.899982332735917 27.647442761429534Q 22.83733632128373 27.28567560254259  22.953461164337195 27.167713656026734Q 23.066242434324273 27.059176173376272  23.180842470312754 26.85578779673827L 23.180842470312754 26.85578779673827Q 24.232689878848703 26.43315671747858  25.05803785821833 25.78161952517835L 25.05803785821833 25.78161952517835Q 25.641417728679237 25.542939976953093  25.909234207848872 25.266580910727317Q 26.18981872395027 24.984140953702564  26.547636054437024 24.962536370778253L 26.547636054437024 24.962536370778253Q 26.70967070614975 24.924526218919375  26.813339808668847 24.961305522649674Q 26.926433375053318 25.001428399446368  27.105185892098 24.91629592826063L 27.105185892098 24.91629592826063Q 27.331060728469538 24.84788132240684  27.58034057630581 24.713495469495456Q 27.82019596027673 24.57576604351768  28.07950652731218 24.413106799010176L 28.07950652731218 24.413106799010176Q 28.335473521281237 24.25987201836804  28.57806622298473 24.144335093187394Q 28.81123446082287 24.02545459494036  29.02007913546506 23.85550194896627L 29.02007913546506 23.85550194896627Q 29.697079051784918 23.35293741251059  30.1184242705331 23.152268016144212Q 30.539769489281277 22.951598619777826  30.82917221391424 22.704119200481973L 30.82917221391424 22.704119200481973Q 31.038016888556445 22.534166554507884  31.214638343202346 22.395224617862503Q 31.381835333982863 22.252939108150734  31.722934799137654 22.278456844553283ZM 3.4010800107998853 9.991689924475871L 3.4010800107998853 9.991689924475871Q 3.082209721364171 10.621310237454406  2.9013444793816783 10.981570926737337Q 2.729903701264549 11.345175189086657  2.6572636455351444 11.669556788909505L 2.6572636455351444 11.669556788909505Q 2.648776070861939 12.112194294184606  2.5998349855336724 12.190327322840176Q 2.547550327139017 12.277884815361112  2.585560478997898 12.439919467073844L 2.585560478997898 12.439919467073844Q 2.6576309543154584 12.805030199027179  2.930646447474841 13.082271142062183Q 3.2070055137006137 13.35008762123182  3.569397265382337 13.58476232867396L 3.569397265382337 13.58476232867396Q 3.803190096015234 13.763202549321251  4.036376671314342 13.973259734631055Q 4.263482355814459 14.170548883009092  4.510649478712924 14.311291248194898L 4.510649478712924 14.311291248194898Q 4.788221055606299 14.515873798039518  5.116552483829334 14.54747242524105Q 5.450964802851351 14.591839089374343  5.79237656440354 14.766017185224058L 5.79237656440354 14.766017185224058Q 6.333833129527334 15.06421978092762  6.602880456825545 15.053564468933672Q 6.8780086749227385 15.055677193871485  7.104195807691672 15.135922947464866L 7.104195807691672 15.135922947464866Q 7.452900970710442 15.25963515092133  7.712542171604258 15.574573949417822Q 7.972183372498076 15.889512747914319  7.925685645965993 16.170115601476695L 7.925685645965993 16.170115601476695Q 7.862157757704567 16.349180414918763  7.702254168390629 16.441000032237284Q 7.551775042942063 16.536163222622193  7.521682885344545 16.620983397410544L 7.521682885344545 16.620983397410544Q 7.215249998982229 16.766924776586094  7.045297353008142 16.558080101943897Q 6.865920243168685 16.345891854235305  6.6658754395970785 16.22186735438145L 6.6658754395970785 16.22186735438145Q 6.432082608964175 16.04342713373416  6.0842959976765965 16.036758325062355Q 5.733165813322623 16.039513980255922  5.4011785156358085 15.868679457472599L 5.4011785156358085 15.868679457472599Q 5.269236021520599 15.821869434543126  5.150667819670951 15.737361556152166Q 5.035443190887694 15.643429213895832  4.809256058118764 15.56318346030245L 4.809256058118764 15.56318346030245Q 4.514966615893436 15.40572322978469  4.262637153927178 15.36925622245178Q 4.000883228095545 15.329445642052479  3.736998239865124 15.235825596193534L 3.736998239865124 15.235825596193534Q 3.6050557457499197 15.189015573264063  3.4804066531012863 15.091739657941337Q 3.36518202431803 14.997807315685003  3.208915967006895 14.89992514502848L 3.208915967006895 14.89992514502848Q 2.850786340122758 14.772869368505628  2.7355617113395008 14.678937026249294L 2.7355617113395008 14.678937026249294Q 2.504800157375602 14.342411982289466  2.401131054856508 14.305632678559167Q 2.288037488472038 14.265509801762475  2.207167142083879 14.194376215637078L 2.207167142083879 14.194376215637078Q 2.023840203844231 14.023229396456365  1.9520820249240565 13.806779023950195Q 1.8836674190702718 13.58090418757865  1.6875724438988566 13.41583825919692L 1.6875724438988566 13.41583825919692Q 1.6994035916384527 12.963776290056444  1.619139500584096 12.86102573926854Q 1.5294509456643683 12.754931615414243  1.474722928473534 12.640019283028376L 1.474722928473534 12.640019283028376Q 1.575948672196454 12.474328761851874  1.5917479857972134 12.310163047740353Q 1.6014664085990007 12.13322929669707  1.6616507237940366 11.963588947120371L 1.6616507237940366 11.963588947120371Q 1.856808809773287 11.682673797160612  2.0379863481531664 11.471073467324839Q 2.2097394226676816 11.256129564422686  2.350481787853485 11.008962441524218L 2.350481787853485 11.008962441524218Q 2.6058241890277722 10.558406941987755  2.6544346404976684 10.002675870328186Q 2.7030450919675637 9.446944798668618  3.0088533855351005 9.00368270059874L 3.0088533855351005 9.00368270059874Q 3.4053054606755047 9.441433488281481  3.3861625740083543 9.615023666258375Q 3.3797877242729584 9.782532953436283  3.4010800107998853 9.991689924475871ZM 3.6092084053424194 7.8797281418232705L 3.6092084053424194 7.8797281418232705Q 3.2978888013877534 7.620729871185208  3.172302819546956 7.07747287752099Q 3.0372923738407938 6.530872310790385  3.3735051214032348 6.151450397379317L 3.3735051214032348 6.151450397379317Q 3.5385710497849603 5.955355422207903  3.8057812736207968 5.710613320644639Q 4.066910606657654 5.453103182149611  4.16115524531137 5.4865389128135185L 4.16115524531137 5.4865389128135185Q 4.33079559488807 5.546723228008553  4.482211609528806 5.89754111596514Q 4.633627624169535 6.248359003921724  4.5700997359081095 6.427423817363792L 4.5700997359081095 6.427423817363792Q 4.5403198747079765 6.660904351599306  4.335737324863362 6.938475928492682Q 4.1405792388841105 7.219391078452443  4.016554739030262 7.4194358820240485L 4.016554739030262 7.4194358820240485Q 3.8986111299753934 7.63224872252742  3.861831826245094 7.735917825046512Q 3.821708949448403 7.849011391430979  3.6092084053424194 7.8797281418232705ZM 33.994929092891816 19.2540491456561L 33.994929092891816 19.2540491456561Q 34.24538477647374 18.398553996306028  34.51531398058119 17.847066711983057Q 34.78524318468864 17.295579427660094  35.26100412423026 17.061162004232415L 35.26100412423026 17.061162004232415Q 35.781168402827134 17.15020762889639  35.64286939643751 17.599844576701663Q 35.513994853913246 18.052825097573326  35.34316033112993 18.38481239526014L 35.34316033112993 18.38481239526014Q 35.232822419939026 18.695819702817424  35.16473844794362 18.947542909449883Q 35.106078939813564 19.20260968914873  34.78627176118569 19.38624892378577L 34.78627176118569 19.38624892378577Q 34.577427086543494 19.55620156975986  34.392887637636235 19.44828867990416Q 34.21169176179537 19.33095132618309  33.994929092891816 19.2540491456561ZM-5.704254602439758-11.149496929174049L-5.704254602439758-11.149496929174049Q-5.53398966006828-10.791991895084683 -5.967496660414426-10.616858572581828Q-6.397660087694172-10.451149713944341 -6.610472928197542-10.569093322999212L-6.610472928197542-10.569093322999212Q-6.615047349392514-10.825372613365662 -6.583136425793596-11.005043682141535Q-6.53845746526291-11.190795641716385 -6.390109402213136-11.33976829756094L-6.390109402213136-11.33976829756094Q-6.232336875297986-11.485397380339101 -5.997331533997478-11.370191089016823Q-5.768407083495957-11.267752834626307 -5.704254602439758-11.149496929174049ZM-4.125261810237744-11.682208635610175L-4.125261810237744-11.682208635610175Q-4.388834502070772-11.627168322021957 -4.691023601096484-11.702545695483957Q-4.980444663190434-11.78400395974494 -5.095981588371076-12.026596661448437L-5.095981588371076-12.026596661448437Q-4.900823502391825-12.307511811408197 -4.6874227440156355-12.550122850572675Q-4.470678412573054-12.802158353602522 -4.2241358824693656-12.958736707311044L-4.2241358824693656-12.958736707311044Q-3.529793508022782-13.211102844199257 -3.355909371109481-13.372237281641773Q-3.1726007703308023-13.530028146017896 -2.993848253286119-13.615160617203633L-2.993848253286119-13.615160617203633Q-2.5253807152110825-13.799112148238063 -2.0614692608700276-13.910405286082103Q-1.6103258434607408-14.015617533127164 -1.1555448940486546-14.310531568147269L-1.1555448940486546-14.310531568147269Q-0.43991023307515054-14.353740733995892  0.26385660523680343-14.602763297817715Q 0.9770479074141347-14.848442288573143  1.8127939147632524-14.392779462351818L 1.8127939147632524-14.392779462351818Q 1.935936537807872-14.051992293594408  1.667807762240848-13.9242935868158Q 1.3996789866738228-13.796594880037194  1.1528241601727491-13.788676885775832L 1.1528241601727491-13.788676885775832Q 0.8162991162129161-13.557915331811934  0.41409678413188766-13.530836113422442Q-0.0008735848808951729-13.497676004233968 -0.3036506017794256-13.212498729476623L-0.3036506017794256-13.212498729476623Q-1.8227713751837977-12.99808773206436 -3.1755770346168783-12.385130272034852L-3.1755770346168783-12.385130272034852Q-3.3467238537975845-12.201803333795198 -3.6078531868344417-11.944293195300173Q-3.8784069837366686-11.690126629871536 -4.125261810237744-11.682208635610175ZM 32.71316757052239-3.631673202562956L 32.71316757052239-3.631673202562956Q 32.435283697231625-3.9849161118547407  32.248300889528196-4.295298826617243Q 32.064661654891154-4.615106005245121  32.63892935788408-4.708468767089608L 32.63892935788408-4.708468767089608Q 33.42329092110876-4.377142737119522  33.7346288625244-3.789206782924623Q 34.04931037700644-3.2106952925950925  34.63820155785449-2.7471144721124094L 34.63820155785449-2.7471144721124094Q 34.77806204623106-2.4534496226818607  34.922478618341614-2.2324431664416977Q 35.06355161738579-2.0020122463361627  35.118591930974006-1.738439554503131L 35.118591930974006-1.738439554503131Q 34.991536154451154-1.3803099276189883  34.90702827606019-1.261741725769344L 34.90702827606019-1.261741725769344Q 34.73588145687948-1.0784147875296917  34.476552552383055-1.2446932265790238Q 34.207799184021255-1.4143152386947442  34.03784653804716-1.623159913336945L 34.03784653804716-1.623159913336945Q 33.73532680516308-2.176135329802946  33.591222529449915-2.248481426595946Q 33.44103736293776-2.333595560320706  33.38630934574693-2.4485078927065747L 33.38630934574693-2.4485078927065747Q 33.24948013403936-2.900257565449662  33.11722534352676-3.095727947826296L 33.11722534352676-3.095727947826296Q 32.85271576250157-3.486668712579572  32.71316757052239-3.631673202562956ZM 15.201393444858981-13.579389873827056L 15.201393444858981-13.579389873827056Q 14.988892900753001-13.548673123434758  14.699471838659054-13.63013138769574Q 14.400626312699739-13.714933225023113  14.213955801393693-13.876655580338456L 14.213955801393693-13.876655580338456Q 14.161946764474477-14.298313095484021  14.504864995630673-14.367646253068996Q 14.86055126371864-14.443060301452949  15.12412395555167-14.498100615041167L 15.12412395555167-14.498100615041167Q 15.452161424838296-14.28622466372997  15.90179837264357-14.147925657340338Q 16.354778893515235-14.019051114816083  16.7715863659904-13.818124434435246L 16.7715863659904-13.818124434435246Q 17.143402581537494-13.580106153926716  17.464146649357534-13.317764310222259Q 17.794315181042947-13.052078893451414  18.19014266338858-12.911648824662997L 18.19014266338858-12.911648824662997Q 18.90089060676973-13.359797640325237  19.56060307734578-13.125747525677877Q 20.229740011787207-12.888353837964125  20.693669803589227-12.670709292251328L 20.693669803589227-12.670709292251328Q 21.076122993669298-12.49258136800142  21.542790103203913-12.252744321491493Q 22.009457212738532-12.012907274981561  22.473387004540555-11.795262729268769L 22.473387004540555-11.795262729268769Q 23.06196588899121-11.480342268233247  23.714991213434477-11.227443225855144Q 24.36801653787775-10.974544183477038  24.87177524754005-10.689715880039035L 24.87177524754005-10.689715880039035Q 25.35273520107142-10.370533294205934  25.494708414385805-10.351996662872583Q 25.633338054633796-10.324035567673853  25.81240286807587-10.260507679412427L 25.81240286807587-10.260507679412427Q 26.05956999097433-10.119765314226619  26.31889889547076-9.95348687517729Q 26.58765226383256-9.78386486306157  26.922983134585767-9.622454804143619L 26.922983134585767-9.622454804143619Q 27.200554711479143-9.417872254298995  27.492713091305678-9.314221489240879Q 27.775447007266845-9.213914297249152  28.00923983789975-9.03547407660186L 28.00923983789975-9.03547407660186Q 28.465876228235192-8.767363638495812  28.834054911779482-8.339643570012239Q 29.202233595323776-7.911923501528664  29.662213558725604-7.653237527287995L 29.662213558725604-7.653237527287995Q 29.93978513561898-7.448654977443372  30.25626707864144-7.293932064658204Q 30.56940544859751-7.129784688007662  30.803198279230415-6.951344467360368L 30.803198279230415-6.951344467360368Q 31.033647536796927-6.7634797828477  31.18293248903887-6.466471360350759Q 31.319449404349047-6.163382047054839  31.50611991565509-6.0016596917394995L 31.50611991565509-6.0016596917394995Q 31.561160229243306-5.738086999906468  31.516187309776214-5.372057716221942Q 31.465133499510138-5.01879646946918  31.07691171502848-5.061032071203682L 31.07691171502848-5.061032071203682Q 30.595327168702333-5.677535375931111  29.944414569196876-6.205562636406414Q 29.28407750582605-6.736933469948102  28.78911866723434-7.31573891921404L 28.78911866723434-7.31573891921404Q 28.244318529044158-7.604517051052234  27.791631967108906-7.913668917686159Q 27.329520941308278-8.226164357386477  26.740942056857627-8.541084818421998L 26.740942056857627-8.541084818421998Q 25.97937924976388-8.906765130787178  25.691776953671337-9.083074289035686Q 25.404174657578793-9.259383447284186  25.025065040565117-9.446935835399465L 25.025065040565117-9.446935835399465Q 24.43314258304807-9.752431832569611  23.797147420334145-9.903792834827414Q 23.151727793754848-10.058497410151602  22.3509606615956-10.194040761347665L 22.3509606615956-10.194040761347665Q 22.056983515767666-10.202840632418262  21.73350213021503-10.487374976919853Q 21.41336431772879-10.781333785286812  21.179571487095885-10.959774005934104L 21.179571487095885-10.959774005934104Q 21.077721150578192-11.091404203651926  20.896525274737332-11.208741557372996Q 20.715329398896472-11.326078911094067  20.61347906237878-11.457709108811887L 20.61347906237878-11.457709108811887Q 20.511628725861087-11.589339306529707  20.318271068422263-11.732212734114306Q 20.11883252018446-11.887854198630661  19.868321824219603-12.019172099951094L 19.868321824219603-12.019172099951094Q 19.73637933010439-12.065982122880566  19.597749689856396-12.093943218079296Q 19.459120049608405-12.121904313278023  19.327177555493197-12.168714336207493L 19.327177555493197-12.168714336207493Q 19.100990422724266-12.248960089800876  18.90976382768423-12.338024051925828Q 18.7185372326442-12.427088014050781  18.63371705785585-12.457180171648298L 18.63371705785585-12.457180171648298Q 17.86335437969151-12.528883338185542  17.632905122125003-12.71674802269821Q 17.389687827626723-12.898531816411893  17.125802839396304-12.992151862270838L 17.125802839396304-12.992151862270838Q 16.389188188293264-13.00943930801464  15.959612678886337-13.204285097596498Q 15.533380742545797-13.408555351043734  15.201393444858981-13.579389873827056Z"></path><path d="M507,412.2l-6.9,10c-0.8,1.2-1.6,2.5-2.6,3.7l-3,4l-3.2,4.4c-1.1,1.5-2.4,3-3.6,4.5l-3.9,4.8
			c-1.3,1.6-2.8,3.2-4.2,4.8l-4.4,4.9l-4.7,4.8c0.1,0.6,0.7,0.6,2-0.2c0.9-0.5,1.7-1.1,2.5-1.7c0.5-0.4,1.1-0.8,1.7-1.3l1.9-1.7
			c1.3-1.3,2.9-2.7,4.6-4.5c0.9-0.9,1.8-1.8,2.8-2.8l2.9-3.3c5.1-5.8,9.9-11.8,14.3-18.1l5.1-7.5c-0.9-0.2-1.2-1.5-0.8-4.1
			C508.5,410.5,508.2,410.4,507,412.2z" fill="#000000" transform="matrix(0.2245018035173416, 0, 0, 0.2245018035173416, 192.6455841064453, 128)" data-uid="o_f06015m3b_5"></path><path d="M563.8,282c-0.1,0.5-0.2,1-0.3,1.5l0.9,12.2L563.8,282z" fill="#000000" transform="matrix(0.2245018035173416, 0, 0, 0.2245018035173416, 192.6455841064453, 128)" data-uid="o_f06015m3b_6"></path><path d="M546.3,333.8l0.5-3.4l-0.8,4.1c-0.3,1.4-0.6,2.7-0.9,3.9l-1.8,7.4c-0.5,2.4-1.2,4.6-1.8,6.9l-1.7,6.4
			l-0.4,1.6l-0.5,1.5l-1,3l-1.9,6c-0.6,2-1.4,3.9-2.1,5.9l-2.3,6c1.1-2.1,2.1-4.1,3.1-6s2-3.7,2.8-5.4c1.7-3.4,3.2-6.2,4.5-8.3
			c0.9-1.6,1.7-3.2,2.4-4.8c0.8-1.8,1.7-3.7,2.5-5.8l1.3-3.2l1.2-3.5l2.5-7.5c0.4-1.9,0.6-3.9,1-6.1l1-7c0.4-2.4,0.6-4.9,0.9-7.4
			s0.6-5,0.9-7.4c-1.1,5-1.1,5-1.6,12l1.1-13.1l0.3-7.9c-0.6,2.2-1,4.4-1.3,6.6c-0.5,3.4-1.4,7.9-2.1,12.8c-0.1,0.6-0.2,1.3-0.3,1.9
			l-0.4,1.9l-0.8,3.9c-0.5,2.6-1,5.3-1.6,8l-1.8,7.8l-0.9,3.7c-0.3,1.2-0.6,2.4-0.9,3.5c2.5-11.2,5.1-27,5.8-40l-2.6,10.9l-1.5,7.4
			l-0.7,3.6l-0.3,1.7l-0.4,1.7l0.3-1.7L546.3,333.8z" fill="#000000" transform="matrix(0.2245018035173416, 0, 0, 0.2245018035173416, 192.6455841064453, 128)" data-uid="o_f06015m3b_7"></path><path d="M388.6,499l-3.5,1.5c-2.3,0.9-4.5,1.9-6.4,2.7c-4,1.5-7,2.8-7.9,3.8c1.4-0.1,2.7-0.4,4-0.8
			c1-0.3,2.1-0.6,3.3-0.9l1.9-0.6c0.7-0.2,1.3-0.5,2-0.7l9-3.3l9.3-3.9c1.7-0.6,3.3-1.4,4.8-2.1l4.2-2.9c1.5-1,3-1.9,4.4-3.1
			l4.5-3.3l2.3-1.7l1.2-0.8l1.1-0.9c-1.2,0.8-2.5,1.4-3.8,2.1l-3.9,2l-3.9,2.1l-4,1.9l-5,3.3c-0.9,0.6-1.8,1.1-2.8,1.7l-2.8,1.6
			c-0.5,0-1.1,0.1-1.7,0.2c0.5-0.6,1.3-1.3,4.4-3.1l-0.6,0.3c-3.1,1.3-6.3,2.6-9.5,3.9c1.1-0.1,2-0.4,3-0.6l-1.7,0.9
			C389.8,498.5,389.2,498.8,388.6,499z" fill="#000000" transform="matrix(0.2245018035173416, 0, 0, 0.2245018035173416, 192.6455841064453, 128)" data-uid="o_f06015m3b_8"></path><path d="M555.4,396.8c-2.3,2.9-3.8,4.1-4.5,3.3c-0.5-0.7-0.5-2.5,0.2-6.1c0.1-1.1-1.2,0.8-3.3,4.4
			c-1,1.8-2.3,4.1-3.7,6.7s-3.2,5.4-5,8.4c-7.2,11.9-16.9,25.9-24,33.9c-4.7,4.2-3.5,0.4,0.5-7.1c0.5-1,1.1-1.9,1.6-3l1.7-3.4
			c1.2-2.4,2.5-5,4-7.6l4.1-8.6c0.7-1.5,1.4-2.9,2.1-4.5l1.9-4.6c1.4-3.7,3-7.5,4.2-11.4c0.3-0.4,0.5-0.8,0.8-1.2l1.7-4.8l0.8-2.3
			l0.7-2.3c-0.9,2-2,4-3.1,5.9l-3.1,5.6c-0.5,0.9-1,1.9-1.6,2.8l-1.6,2.6l-3.2,5.1c-1.5,2.9-3.1,5.6-4.8,8.3l2.3-4.5l-4.6,6.4
			l-2.2,3c-0.7,1-1.5,1.8-2.2,2.7c-1.4,1.7-2.8,3.3-4.1,4.8c-1.2,1.4-2.4,2.7-3.7,3.9c-1.9,1.7-4.2,3.9-6.7,6.7
			c-1.2,1.4-2.7,2.8-4.2,4.3s-3,3.2-4.7,4.9c-1.2,1.7-2.6,3.2-4,4.8l-4.4,5c2.8-3.3,4.6-5.5,5.8-7.2l-4.7,4.7
			c-1.6,1.6-3.3,3.3-5,4.9l-1.7,1.5c2.9-4.4,6.1-8.5,9.6-12.5c-4.7,4.7-9.8,10.1-15.6,16l3.8-4.1c1.4-1.5,2.9-3,4.3-4.7l4.4-5.2
			c-2.1,2.3-3.7,3.8-3.4,3c1-1.5,2.3-3.1,3.7-4.9c-11.1,11.1-22.7,20.5-32.2,26.4l-3.4,2.1c-1.1,0.7-2.2,1.2-3.2,1.8
			c-2,1.1-3.8,2-5.4,2.6c-1.2,0.6-2.5,1-3.9,1.3c-0.7,0.2-1.5,0.2-2.2-0.2l-7.3,4.9c-3.8,2.4-7.3,4.4-10.5,6.3s-6.3,3.3-9,4.6
			s-5.2,2.4-7.4,3.3s-4.1,1.7-5.8,2.3c-6.7,2.3-9.3,2.5-9,1.3l-3.7,1.6l-3.7,1.3l-7.5,2.8l-7.6,2.5l-3.7,1.2l-3.7,1l-7.3,1.9
			c-2.4,0.6-4.7,1-7,1.4s-4.4,0.9-6.5,1.2l-6,0.8l-4.6,0.5c-1.5,0.2-3,0.2-4.6,0.3c-3,0.2-6,0.4-8.9,0.5c-5.9,0-11.7,0.2-17.3-0.3
			c-11.1-0.6-22.2-1.9-33.1-4.1l-11.1-0.8l-5.2-0.6l-1.9-0.5c-1.6-0.4-3.2-0.8-4.7-1.2l-4.4-1.4c-2.8-0.9-5.2-1.6-7.1-2.4
			c-1.3-0.5-2.5-1.1-3.7-1.8c1.4-0.2,4.4,0.7,8.5,1.6c2,0.5,4.3,1.1,6.7,1.7s4.9,1,7.4,1.5l-2.7-1.3l-3.4-0.9
			c-6-1.3-12.1-2.4-17.5-3.7l-4.8-0.7c-1.6-0.2-3.2-0.6-4.9-1l-4.7-1c-1.5-0.3-3-0.6-4.4-1c2.3,0.1,4.7,0.5,6.9,1
			c1.6,0.3,3.5,0.8,5.4,1.3s4.2,0.9,6.4,1.4c2.9,0.5,5.9,0.8,8.8,1c-13.5-4.4-26.7-9.8-39.3-16.3c-1.9-0.8-3.7-1.5-5.5-2.2l0.7,0.3
			l3.9,1.5l-2.8-1.3c-0.9-0.5-1.9-0.9-2.8-1.5c-2.7-1.3-6.2-2.7-10.1-4.6l-6.2-3.1c-1.1-0.6-2.2-1.1-3.3-1.7l-3.4-2
			c-10.2-5.7-19.9-12.2-29.1-19.4c-1.2-1.5-2.5-3.1-3.9-4.7c-1.3-1.6-2.6-3.2-3.9-5l-2.1-2.5l-1.1-1.3c-0.3-0.4-0.7-0.9-1-1.3
			c-1.3-1.8-2.7-3.5-4.2-5.3c-0.7-0.9-1.5-1.8-2.2-2.7l-2.1-2.8c-1.4-1.9-2.9-3.8-4.4-5.7c-1.4-2-2.9-4-4.3-6l-2.2-3l-2.1-3.2
			l-4.1-6l-3.9-6.3l-2-3.2l-1.9-3.3l-3.9-6.6c-2.4-4.6-5-9.1-7.3-14l-1.8-3.6l-0.9-1.8c-0.3-0.6-0.5-1.2-0.8-1.9l-3.3-7.4
			c-0.6-1.2-1-2.5-1.5-3.8l-1.5-3.9l-1.5-3.9l-1.3-4c-0.9-2.7-1.8-5.3-2.6-8l-2.3-8.3l-0.6-2.1l-0.5-2.1l-1-4.2l-1-4.2
			c-0.3-1.4-0.5-2.8-0.8-4.3l-1.5-8.6l-1.1-8.7c-1.7-14.3-2-28.7-1.1-43c0.8-11.9,2.5-23.8,5.3-35.4c0.3-1.5,0.8-3.1,1.2-4.7
			c0.4-1.6,0.9-3.3,1.5-4.9c1.2-3.2,2.4-6.4,3.5-9.2c2.6-5.5,4.6-9.5,4.6-9.5c3.7-9.5,8-18.8,12.8-27.9c2.2-4.4,4.7-8.5,7-12.6
			c1.1-2.1,2.5-4,3.7-6l3.7-5.8c9.7-14.4,20.9-27.9,33.3-40.1c12.7-12.5,26.7-23.5,41.8-32.8c11.3-6.8,23.1-12.6,35.3-17.3
			c13.9-5.4,28.4-9.4,43.2-11.9c2.9-0.5,5.7-0.8,8.6-1.3l4.3-0.6c1.4-0.2,2.8-0.3,4.2-0.4l8.4-0.8c2.8-0.2,5.6-0.3,8.4-0.4l4.2-0.2
			c1.4-0.1,2.8,0,4.1,0h8.2c1.4,0,2.7,0.1,4.1,0.1l4.1,0.2l4.1,0.2l2,0.1l2,0.2c16.6,1.3,33.1,4.1,49.1,8.4l10.3,3l10,3.4
			c1.7,0.5,3.3,1.2,5,1.9l4.9,1.9c3.3,1.2,6.5,2.7,9.7,4.2c25.5,11.4,49,27,69.5,46l3.8,3.6l1.9,1.8c0.6,0.6,1.2,1.3,1.8,1.9
			c2.4,2.6,4.9,5.1,7.3,7.7l7,8c1.2,1.3,2.2,2.8,3.4,4.2l3.3,4.2c2.2,2.9,4.3,6,6.2,9.2l1.6,2.6c0.5,0.9,1,1.7,1.5,2.6l2.9,5.4
			c1,1.8,2,3.6,2.9,5.5l2.6,5.4c0.9,1.8,1.7,3.5,2.6,5.1s1.5,3.3,2.3,4.8l2,4.3l1,2.2l0.9,2.2l3.9,9.1c2.3,6.2,4.8,12.5,6.7,18.9
			l1.5,4.7c0.5,1.6,0.9,3.2,1.3,4.8l2.5,9.3l2,9.1c0.3,1.5,0.7,2.9,1,4.4l0.8,4.2l1.5,8l1,7.3l0.9,6.4c0.2,2,0.4,3.7,0.6,5.3
			c0.8,6.3,1.5,9.4,2,7.9c0.7-1.1,1.5-3.3,2.1-6.6c0.9-4.1,1.6-8.3,1.9-12.6c0.2-2.6,0.3-5.4,0.5-8.4s-0.1-6.2-0.1-9.6
			c-0.1-1.7,0-3.5-0.2-5.3l-0.5-5.5c-0.3-3.8-0.7-7.7-1.4-11.8c-2.7-18.5-7.6-36.6-14.7-53.9l-3-7.2l-3.4-7.1
			c-2.2-4.8-4.8-9.5-7.5-14.3c-1.3-2.4-2.7-4.7-4.2-7l-4.4-7l-4.8-6.8c-1.6-2.3-3.2-4.6-4.9-6.7c-13.9-18.5-30-35.2-48-49.7
			c-2.3-1.8-4.5-3.6-6.8-5.4l-7-5.1l-3.5-2.5l-3.6-2.4l-7.3-4.8c-10-6.2-20.3-11.7-31-16.6c-5.3-2.6-10.8-4.7-16.3-6.9l-2.1-0.8
			l-2.1-0.7l-4.2-1.5l-4.2-1.5c-1.4-0.5-2.8-1-4.2-1.4c-5.6-1.7-11.3-3.5-17.2-4.8c-2.9-0.7-5.8-1.4-8.7-2l-8.8-1.7L329,3.5
			l-4.5-0.6l-9-1.2c-3-0.3-6-0.5-9-0.8s-6-0.6-9.1-0.6l-9.1-0.3C287.6,0,286.8,0,286,0h-2.3l-4.6,0.1l-4.6,0.1c-1.5,0-3.1,0-4.6,0.2
			L260.8,1c-35.9,3-70.9,12.9-103,29.1c-3,1.6-6.1,3-9,4.9l-5.2,3l-2.6,1.6l-1.3,0.8l-1.3,0.8l-10.3,6.7l-10,7.3
			c-3.3,2.5-6.5,5.2-9.7,7.8c-23.5,19.8-43.8,43.2-60,69.3l-2.5,4l-2.3,4l-4.3,7.4l-6.9,12.9c-2.9,5.8-6,11.6-8.4,17.5l-2,4.4
			l-1,2.2c-0.3,0.7-0.6,1.5-0.9,2.2l-3.5,9c-0.7,1.7-1.2,3.4-1.8,5.1l-1.6,5l-1.7,5.1l-1.4,5.1l-1.4,5.1c-0.5,1.7-1,3.4-1.3,5.2
			L5.2,237c-0.4,1.7-0.7,3.5-1,5.2l-0.9,5.2l-0.9,5.3L1.8,258l-0.6,5.3l-0.3,2.6c-0.1,0.9-0.2,1.8-0.2,2.6L0,279.2l0.2,2.8l0.3,2.9
			l0.6,5.8l0.6,5.7c0.3,1.9,0.6,3.7,0.9,5.4c0.2,3.3,0.3,6.7,0.6,10.1l1.2,10.5l0.3,2.7c0.1,0.9,0.3,1.8,0.4,2.7l0.9,5.4l1,5.5
			c0.3,1.8,0.8,3.6,1.2,5.5l1.3,5.5c0.4,1.9,0.8,3.7,1.4,5.5l3.2,11.1c1.2,3.7,2.5,7.4,3.8,11.1c0.3,0.9,0.6,1.9,1,2.8l1,2.8
			l2.2,5.5c6.1,14.6,13.5,28.6,21.9,42c8.1,12.7,17.2,24.8,27.3,36.1l0.3,0.4c-1.9-1.4-1.8-0.7-0.5,1.2c2,3,4.3,5.8,6.7,8.5
			c5.6,6.2,11.5,12.1,17.7,17.7c8.5,7.5,16,13.6,23,18.8l5.1,3.8l2.5,1.8c0.8,0.6,1.7,1.1,2.5,1.7l9.5,6.4l9.4,5.8
			c0.8,0.5,1.6,1,2.4,1.4l2.4,1.3l4.9,2.7c1.7,0.9,3.3,1.9,5.1,2.8l5.4,2.7l5.7,2.8c1.9,0.9,4,1.8,6.1,2.7l4.9,2l2.5,1
			c0.8,0.3,1.7,0.6,2.5,0.9l10.1,3.5c18.2,5.8,36.9,9.8,55.8,11.8c19,2,38,2.4,57.1,1.1c3.5-0.2,6.8-0.8,9.9-1.1l4.7-0.6
			c1.5-0.2,3-0.3,4.5-0.6l8.3-1.4l3.9-0.7c1.3-0.2,2.5-0.5,3.7-0.8l6.9-1.5c2.2-0.5,4.3-0.9,6.3-1.4c4-1,7.6-1.9,11-2.6l9-2.4
			c2.7-0.7,5.3-1.3,7.6-2c4.6-1.3,8.5-2.3,12-3.3c7-2.2,13.1-3.7,21.3-7.3l3.2-1.4c1.1-0.5,2.3-1,3.4-1.6c2.4-1.2,4.9-2.6,7.7-4.1
			c1.4-0.8,2.9-1.5,4.3-2.5l4.6-2.9c3.2-2.1,6.8-4.3,10.5-7.1c13.9-10.1,27-21.4,39.2-33.5c13.2-13.3,25.3-27.7,36-43.1
			c1.3-2.1,2.6-4.3,4-6.6s2.8-4.5,4.1-6.9l3.8-7c1.2-2.3,2.5-4.5,3.6-6.7c6.4-12.6,8.8-18.2,10.8-21.8c1-1.8,1.7-3.3,2.6-5
			s1.8-3.7,3-6.8l-2.4,5l3.4-8.2C561,388,558.3,392.5,555.4,396.8z M467.3,470.8l-4.4,4.5C464.4,473.7,465.8,472.2,467.3,470.8
			L467.3,470.8z M258.5,524.4l2.8,0.4l2.8,0.3c3.7,0.3,7.2,0.6,10.3,0.7c-0.3,0.1-0.7,0.3-1,0.5c-0.8-0.1-1.5-0.2-2.3-0.3l-5.8-0.6
			l-2.8-0.3l-1.4-0.1l-1.4-0.2c-3.6-0.5-7.1-1-10.3-1.2c0.4-0.1,0.7-0.2,1.1-0.4c0.7,0.1,1.4,0.3,2.2,0.3L258.5,524.4z M184.7,492.4
			c-0.8-0.3-1.6-0.7-2.3-1C183.1,491.6,183.9,492,184.7,492.4L184.7,492.4z" fill="rgba(67,132,140,1)" transform="matrix(0.232809379696846, 0, 0, 0.232809379696846, 188.01084899902344, 123.26342010498047)" data-uid="o_f06015m3b_9"></path><path text="W" fill="#509693" space="preserve" text-anchor="middle" offset="0.5" font-scale="contain" font-size="48" font-family="Sancreek" transform="matrix(0.8709442019462585, -0.572841227054596, 0.5753997564315796, 0.8748342394828796, 299.3488464355469, 200.38917541503906)" font-weight="400" font-style="normal" data-uid="o_f06015m3b_10" data-fl-textpath="" d="M 20.325000000000003-36.61L 20.325000000000003-36.61Q 21.965000000000003-36.61  21.965000000000003-35.39L 21.965000000000003-35.39L 21.965000000000003-35.23Q 19.945-33.28  18.784999999999997-29.52Q 17.625-25.76  17.625-21.33L 17.625-21.33Q 17.625-19.64  17.854999999999997-18.76Q 18.095-17.88  18.095-17.86L 18.095-17.86Q 15.305-12.96  14.015-7.78L 14.015-7.78Q 13.524999999999999-5.79  13.524999999999999-3.97Q 13.524999999999999-2.16  14.765-0.23L 14.765-0.23L 14.765-0.14Q 14.765 1.17  12.115000000000002 1.17L 12.115000000000002 1.17Q 10.994999999999997 1.17  10.215000000000003 0.52L 10.215000000000003 0.52Q 8.975000000000001-0.56  8.344999999999999-1.52L 8.344999999999999-1.52Q 7.664999999999999 0.14  5.675000000000001 0.89L 5.675000000000001 0.89Q 4.855 1.17  3.9849999999999994 1.17Q 3.1149999999999984 1.17  2.6050000000000004 0.82Q 2.085000000000001 0.47  1.8550000000000004-0.23L 1.8550000000000004-0.23Q 3.254999999999999-2.16  3.254999999999999-4.57L 3.254999999999999-4.57Q 3.254999999999999-5.41  2.9549999999999983-6.89Q 2.6449999999999996-8.37  2.3949999999999996-9.73L 2.3949999999999996-9.73Q 1.6649999999999991-13.59  0.6550000000000011-17.48L 0.6550000000000011-17.48L 0.3049999999999997-18.87Q-1.0549999999999997-14.77 -2.1750000000000007-10.37Q-3.3049999999999997-5.98 -3.3049999999999997-4.07Q-3.3049999999999997-2.16 -2.0650000000000013-0.23L-2.0650000000000013-0.23L-2.0650000000000013-0.14Q-2.0650000000000013 1.17 -4.715 1.17L-4.715 1.17Q-5.835000000000001 1.17 -6.605 0.52L-6.605 0.52Q-7.855-0.56 -8.485-1.52L-8.485-1.52Q-9.165 0.14 -11.155 0.89L-11.155 0.89Q-11.975 1.17 -12.845 1.17Q-13.715 1.17 -14.225 0.82Q-14.745000000000001 0.47 -14.975-0.23L-14.975-0.23Q-13.575-2.16 -13.575-4.57L-13.575-4.57Q-13.575-5.84 -14.175-8.5Q-14.785-11.16 -15.455-12.89Q-16.125-14.63 -16.665-15.41Q-17.205-16.2 -17.675-16.66Q-18.145-17.13 -18.415-17.36Q-18.675-17.58 -18.675-17.79Q-18.675-18 -18.495-18.25Q-18.305-18.49 -18.075-18.75L-18.075-18.75Q-17.465-19.45 -17.465-21.56L-17.465-21.56Q-17.465-25.83 -18.715-29.58Q-19.965-33.33 -21.985-35.23L-21.985-35.23L-21.985-35.32Q-21.985-36.61 -19.835-36.61Q-17.695-36.61 -15.675-34.15L-15.675-34.15Q-14.434999999999999-36.61 -11.905-36.61L-11.905-36.61Q-10.545-36.61 -10.075-36.26L-10.075-36.26Q-9.305-35.67 -9.115-35.23L-9.115-35.23Q-10.525-33.35 -10.525-30.77L-10.525-30.77Q-10.525-29.44 -10.195-27.73Q-9.865-26.02 -8.625-17.81Q-7.385-9.61 -7.265000000000001-8.63L-7.265000000000001-8.63Q-6.045000000000002-12.52 -6.045000000000002-13.88Q-6.045000000000002-15.23 -6.234999999999999-15.97Q-6.425000000000001-16.71 -6.595000000000001-17.04Q-6.775-17.37 -6.775-17.46Q-6.775-17.55 -6.675000000000001-17.65L-6.675000000000001-17.65Q-3.094999999999999-21.8 -3.094999999999999-29.93L-3.094999999999999-29.93Q-3.094999999999999-31.1 -3.495000000000001-32.23Q-3.8949999999999996-33.35 -4.215-33.87Q-4.545000000000002-34.38 -5.155000000000001-35.23L-5.155000000000001-35.23L-5.155000000000001-35.25Q-5.155000000000001-35.67 -4.645-36.02L-4.645-36.02Q-3.7250000000000014-36.61 -2.8049999999999997-36.61Q-1.875-36.61 -1.2850000000000001-36.35Q-0.7049999999999983-36.09 -0.3249999999999993-35.74L-0.3249999999999993-35.74Q 0.46499999999999986-35.02  0.9149999999999991-34.15L 0.9149999999999991-34.15Q 0.9649999999999999-34.24  1.0350000000000001-34.41Q 1.1050000000000004-34.57  1.3850000000000016-35Q 1.6649999999999991-35.44  2.0150000000000006-35.75Q 2.3649999999999984-36.07  2.9549999999999983-36.34Q 3.535-36.61  4.215-36.61Q 4.895-36.61  5.425000000000001-36.47Q 5.954999999999998-36.33  6.234999999999999-36.12L 6.234999999999999-36.12Q 6.824999999999999-35.67  7.004999999999999-35.23L 7.004999999999999-35.23Q 5.535-33.45  5.535-30.7L 5.535-30.7Q 5.535-28.01  7.454999999999998-18.9Q 9.375-9.8  9.565000000000001-8.63L 9.565000000000001-8.63Q 10.314999999999998-12.54  10.314999999999998-13.99Q 10.314999999999998-15.45  10.145000000000003-16.2Q 9.985-16.95  9.835-17.24Q 9.675-17.53  9.704999999999998-17.66Q 9.725000000000001-17.79  9.835-18.06Q 9.935000000000002-18.33  10.215000000000003-19.17Q 10.505000000000003-20.02  10.755000000000003-20.87Q 11.015-21.73  11.325000000000003-22.96Q 11.625-24.19  11.854999999999997-25.36L 11.854999999999997-25.36Q 12.375-28.08  12.375-30.82Q 12.375-33.56  11.134999999999998-35.23L 11.134999999999998-35.23Q 11.155000000000001-35.27  11.174999999999997-35.37Q 11.204999999999998-35.46  11.354999999999997-35.71Q 11.505000000000003-35.95  11.695-36.14L 11.695-36.14Q 12.215000000000003-36.61  12.994999999999997-36.61Q 13.784999999999997-36.61  14.424999999999997-36.35Q 15.075000000000003-36.09  15.424999999999997-35.74L 15.424999999999997-35.74Q 16.215000000000003-34.97  16.525-34.15L 16.525-34.15Q 17.365000000000002-35.16  18.445-35.88Q 19.525-36.61  20.325000000000003-36.61Z"></path></svg>